Genre:Action | Mystery | Thriller
Language:English  http://www.imdb.com/title/tt1307873/
Source:DVD
 
http://shareimage.org/images/xcsdjgv8zfgxfbwj0cj.png 
http://shareimage.org/images/cgd5z8tg1alr4ny9yiqa.png 
http://shareimage.org/images/xzk3x1zcqseare1mun5.png 
http://shareimage.org/images/3dcqbxrfslcbw8fokft2.png


Format : Matroska
File size : 1.35 GiB
Duration : 1h 36mn
Overall bit rate : 1 990 Kbps


Video
Format settings, CABAC : Yes
Format settings, ReFrames : 4 frames
Format settings, GOP : M=4, N=15
Codec ID : V_MPEG4/ISO/AVC
Duration : 1h 36mn
Bit rate : 1 500 Kbps
Width : 720 pixels
Height : 304 pixels
Display aspect ratio : 2.35:1
Frame rate mode : Variable
Frame rate : 25.000 fps
Color space : YUV
Chroma subsampling : 4:2:0
Bit depth : 8 bits
Scan type : Progressive
Bits/(Pixel*Frame) : 0.274
Stream size : 1.02 GiB (76%)
Writing library : x264

Audio
ID : 2
Format : AC-3
Format/Info : Audio Coding 3
Mode extension : CM (complete main)
Codec ID : A_AC3
Duration : 1h 36mn
Bit rate mode : Constant
Bit rate : 448 Kbps
Channel(s) : 6 channels
Channel positions : Front: L C R, Side: L R, LFE
Sampling rate : 48.0 KHz
Bit depth : 16 bits
Video delay : -1mn 5s
Stream size : 311 MiB (23%)
Language : English


Plot:
A private detective is hired to find a missing stripper. A simple job turns complicated when everyone he questions ends up dead.


TRAILER: http://hiphopblog.com/component/content/video/14357.html?&index=1&Itemid=82
